<svg width="45" height="45" viewBox="0 0 45 45" fill="none" xmlns="http://www.w3.org/2000/svg">
<g id="gift 1" clip-path="url(#clip0_132_171)">
<path id="Vector" d="M22.5 45C34.9264 45 45 34.9264 45 22.5C45 10.0736 34.9264 0 22.5 0C10.0736 0 0 10.0736 0 22.5C0 34.9264 10.0736 45 22.5 45Z" fill="#F1F4FF"/>
<path id="Vector_2" d="M30.5358 29.0332C30.5358 30.2117 29.5715 31.176 28.393 31.176H16.6072C15.4286 31.176 14.4644 30.2117 14.4644 29.0332V19.926C14.4644 18.7475 15.4286 17.7832 16.6072 17.7832H28.393C29.5715 17.7832 30.5358 18.7475 30.5358 19.926V29.0332Z" fill="#FDD888"/>
<path id="Vector_3" d="M32.1426 18.3196C32.1426 19.4982 31.1784 20.4625 29.9998 20.4625H14.9998C13.8212 20.4625 12.8569 19.4982 12.8569 18.3196C12.8569 17.141 13.8212 16.1768 14.9998 16.1768H29.9998C31.1784 16.1768 32.1426 17.141 32.1426 18.3196Z" fill="#FDD888"/>
<path id="Vector_4" d="M14.4644 20.4619H30.5358V21.5334H14.4644V20.4619Z" fill="#FCAB40"/>
<path id="Vector_5" d="M23.0356 14.0332H21.9641C21.0765 14.0332 20.3569 14.7527 20.3569 15.6403V31.1761H24.6427V15.6403C24.6427 14.7532 23.9232 14.0332 23.0356 14.0332Z" fill="#DA2F47"/>
<path id="Vector_6" d="M21.4289 16.1767C22.018 16.1767 22.1055 15.9002 21.6222 15.5622L18.0211 13.0411C17.538 12.7031 16.9041 12.845 16.6116 13.3566L15.5317 15.2466C15.2392 15.7582 15.4824 16.1767 16.0716 16.1767H21.4289ZM23.5717 16.1767C22.9823 16.1767 22.895 15.9002 23.3783 15.5622L26.9799 13.0411C27.4625 12.7031 28.0969 12.845 28.3894 13.3566L29.4694 15.2461C29.7612 15.7582 29.5181 16.1767 28.9287 16.1767H23.5717Z" fill="#DA2F47"/>
</g>
<defs>
<clipPath id="clip0_132_171">
<rect width="45" height="45" fill="white"/>
</clipPath>
</defs>
</svg>
