<svg width="45" height="45" viewBox="0 0 45 45" fill="none" xmlns="http://www.w3.org/2000/svg">
<g id="naver 2" clip-path="url(#clip0_132_224)">
<path id="Vector" d="M22.5 45C34.9264 45 45 34.9264 45 22.5C45 10.0736 34.9264 0 22.5 0C10.0736 0 0 10.0736 0 22.5C0 34.9264 10.0736 45 22.5 45Z" fill="#F1FFF5"/>
<path id="Vector_2" d="M22.6709 18.8268H25.2492C25.6081 18.8195 25.9657 18.8727 26.3075 18.9842C26.5836 19.0756 26.8379 19.2249 27.0539 19.4225C27.2488 19.6078 27.3993 19.8363 27.4936 20.0902C27.5912 20.3575 27.6397 20.6408 27.6366 20.9259V21.1398C27.6389 21.4277 27.5863 21.7133 27.4819 21.9807C27.3798 22.2398 27.2252 22.4741 27.0282 22.6682C26.813 22.8749 26.5586 23.0347 26.2805 23.1378C25.95 23.2593 25.6006 23.318 25.2492 23.3111H23.6623V26.1737H22.6709V18.8268ZM23.6623 19.7032V22.4347H25.0803C26.1201 22.4347 26.6405 21.9974 26.6415 21.1227V20.9391C26.6415 20.5184 26.5165 20.2074 26.2664 20.0063C26.0162 19.8056 25.6565 19.7058 25.1899 19.7058L23.6623 19.7032Z" fill="#333333"/>
<path id="Vector_3" d="M30.1809 26.2544C29.6266 26.2544 29.1874 26.1154 28.8634 25.8372C28.7019 25.6955 28.5743 25.5179 28.4902 25.3183C28.4062 25.1187 28.3681 24.9022 28.3787 24.6854V24.4099C28.371 24.1933 28.4091 23.9776 28.4902 23.7774C28.5714 23.5771 28.6938 23.3968 28.8493 23.2488C29.163 22.9497 29.67 22.8001 30.3704 22.8001H31.7627V22.4748C31.7627 22.1005 31.6741 21.8236 31.497 21.6442C31.3206 21.4632 31.0318 21.374 30.6308 21.374C30.3452 21.3678 30.0612 21.4195 29.7954 21.5262C29.5387 21.6397 29.2924 21.7761 29.0593 21.9343L28.5785 21.2008C28.8604 21.0023 29.163 20.8364 29.4809 20.7063C29.8507 20.5605 30.2447 20.4898 30.6411 20.4977C30.9258 20.4946 31.2093 20.534 31.4829 20.6143C31.7214 20.6852 31.9438 20.8029 32.1378 20.9607C32.3207 21.1124 32.4677 21.3038 32.5683 21.5209C32.6755 21.7554 32.7299 22.0114 32.727 22.27V26.1731H31.7948V25.5013H31.7858C31.7281 25.6056 31.654 25.6995 31.5668 25.7795C31.4769 25.8646 31.3775 25.9382 31.2703 25.9986C31.1197 26.0822 30.9594 26.146 30.7933 26.1889C30.5925 26.2356 30.3868 26.2577 30.1809 26.2544ZM31.7627 23.6306H30.391C30.0112 23.6306 29.7391 23.7054 29.575 23.855C29.4918 23.9339 29.4267 24.0305 29.3843 24.138C29.342 24.2455 29.3235 24.3612 29.3301 24.4768V24.625C29.321 24.7399 29.342 24.8551 29.3912 24.9589C29.4404 25.0626 29.5159 25.1511 29.6098 25.2154C29.8103 25.3409 30.0422 25.4048 30.2775 25.3991C30.4892 25.4031 30.7 25.3739 30.9029 25.3125C31.0787 25.2546 31.2431 25.1658 31.3889 25.0501C31.5121 24.9601 31.6103 24.8389 31.6737 24.6986C31.7358 24.5346 31.7649 24.3598 31.7588 24.1843L31.7627 23.6306Z" fill="#333333"/>
<path id="Vector_4" d="M36.1082 25.0528L37.5495 20.5986H38.5718L35.728 28.477L34.8463 28.1607L35.5629 26.2545L33.5649 20.5986H34.6168L36.0684 25.0528H36.1082Z" fill="#333333"/>
<path id="Vector_5" d="M19.0621 16.0713H6.42871V28.9284H19.0621V16.0713Z" fill="#00C73C"/>
<path id="Vector_6" d="M13.7495 25.4431L11.7114 22.3968V25.4431H9.58691V19.5576H11.741L13.7791 22.6041V19.5576H15.9036V25.4431H13.7495Z" fill="white"/>
</g>
<defs>
<clipPath id="clip0_132_224">
<rect width="45" height="45" fill="white"/>
</clipPath>
</defs>
</svg>
