<svg width="45" height="45" viewBox="0 0 45 45" fill="none" xmlns="http://www.w3.org/2000/svg">
<g id="starbucks 2" clip-path="url(#clip0_132_220)">
<path id="Vector" d="M22.5 45C34.9264 45 45 34.9264 45 22.5C45 10.0736 34.9264 0 22.5 0C10.0736 0 0 10.0736 0 22.5C0 34.9264 10.0736 45 22.5 45Z" fill="#E3FEE5"/>
<path id="Vector_2" d="M23.8126 16.5199C23.7175 16.5041 23.2577 16.4249 22.7188 16.4249C22.1798 16.4249 21.7199 16.5041 21.625 16.5199C21.5774 16.5358 21.5456 16.4723 21.5931 16.4406C21.625 16.409 22.7188 15.5846 22.7188 15.5846C22.7188 15.5846 23.8126 16.4249 23.8443 16.4406C23.8918 16.4723 23.8759 16.5199 23.8126 16.5199ZM21.9261 21.9257C21.9261 21.9257 21.8627 21.9414 21.8469 21.989C22.0687 22.1634 22.2273 22.5597 22.7188 22.5597C23.1943 22.5597 23.3528 22.1634 23.5907 21.989C23.5748 21.9414 23.5113 21.9257 23.5113 21.9257C23.5113 21.9257 23.2101 21.989 22.7188 21.989C22.2273 21.989 21.9261 21.9257 21.9261 21.9257ZM22.7188 21.2439C22.5918 21.2439 22.5602 21.1963 22.465 21.1963C22.3858 21.1963 22.2114 21.2598 22.1798 21.3233C22.1798 21.355 22.1957 21.3866 22.2114 21.4183C22.4017 21.4501 22.4968 21.561 22.7188 21.561C22.9407 21.561 23.0357 21.4501 23.226 21.4183C23.2577 21.3866 23.2577 21.3707 23.2577 21.3233C23.226 21.2598 23.0516 21.1963 22.9724 21.1963C22.8773 21.1963 22.8456 21.2439 22.7188 21.2439ZM33.6252 23.3207C33.6093 23.5902 33.5935 23.8438 33.5619 24.0974C32.3253 24.3034 31.8814 23.1939 30.6132 23.2572C30.6925 23.5267 30.7559 23.7962 30.8035 24.0815C31.8498 24.0815 32.2618 25.0485 33.4349 24.9059C33.3716 25.2071 33.3081 25.4924 33.2131 25.7936C32.2937 25.8887 31.9766 24.9693 30.9144 25.0009C30.9144 25.1595 30.9303 25.3021 30.9303 25.4607C30.9303 25.54 30.9303 25.6351 30.9303 25.7143C31.8339 25.6984 32.135 26.5386 32.9912 26.507C32.8801 26.8082 32.7692 27.0936 32.6265 27.3629C32.0082 27.3313 31.7863 26.5386 30.8511 26.6021C30.8193 26.8082 30.7876 27.0142 30.74 27.2045C31.5643 27.141 31.7387 27.902 32.3253 27.9655C32.1667 28.2348 32.0082 28.5043 31.8498 28.7579C31.501 28.5678 31.1998 28.0129 30.534 27.9812C30.5973 27.7752 30.6608 27.5691 30.7084 27.3472C30.1218 27.3472 29.4559 27.1252 28.8854 26.6021C29.0598 25.5716 27.4586 24.5096 27.4586 23.7486C27.4586 22.9243 27.8708 22.4645 27.8708 21.355C27.8708 20.5307 27.4745 19.6429 26.8721 19.0246C26.7611 18.9137 26.6343 18.8186 26.4916 18.7234C27.0465 19.405 27.4745 20.2295 27.4745 21.1647C27.4745 22.2109 26.983 22.7659 26.983 23.7327C26.983 24.6997 28.3939 25.54 28.3939 26.5229C28.3939 26.9192 28.2671 27.2996 27.8549 28.0447C28.4891 28.6787 29.3134 29.0275 29.8523 29.0275C30.0266 29.0275 30.1218 28.9799 30.1852 28.8373C30.2328 28.7263 30.2804 28.5995 30.3437 28.4886C30.9144 28.5043 31.1839 29.0275 31.501 29.2337C31.3266 29.4714 31.1364 29.6933 30.9461 29.9152C30.74 29.6774 30.4548 29.2811 30.0266 29.1702C29.9474 29.3129 29.8682 29.4554 29.7889 29.5982C30.1536 29.6933 30.3913 30.058 30.5816 30.2957C30.3754 30.5019 30.1693 30.7079 29.9316 30.9139C29.7889 30.692 29.5829 30.4225 29.3291 30.2799C29.2341 30.4067 29.139 30.5176 29.0439 30.6287C29.2499 30.7712 29.4402 31.025 29.5511 31.231C29.2975 31.437 29.0279 31.6273 28.7584 31.8175C28.6159 30.7079 27.1098 29.9469 27.5221 28.663C27.3953 28.8849 27.2209 29.1702 27.2209 29.5189C27.2209 30.4543 28.2196 31.1834 28.2988 32.1188C28.0928 32.2456 27.8866 32.3565 27.6646 32.4675C27.6329 31.453 26.5708 30.3432 26.5708 29.503C26.5708 28.5678 27.7916 27.6325 27.7916 26.5386C27.7916 25.4448 26.3807 24.684 26.3807 23.717C26.3807 22.75 26.983 22.1952 26.983 20.9586C26.983 20.0551 26.555 19.1357 25.8892 18.549C25.7783 18.4382 25.6515 18.3588 25.5088 18.2954C26.1428 19.0563 26.5075 19.738 26.5075 20.7684C26.5075 21.9414 25.8259 22.5756 25.8259 23.717C25.8259 24.8584 27.205 25.4924 27.205 26.5545C27.205 27.6167 25.9209 28.5202 25.9209 29.6141C25.9209 30.6127 27.0622 31.5957 27.0782 32.7845C26.8246 32.8955 26.5867 32.9907 26.3172 33.0857C26.4599 31.8969 25.1917 30.6603 25.1917 29.6933C25.1917 28.6311 26.5234 27.7117 26.5234 26.5703C26.5234 25.4291 25.16 24.89 25.16 23.717C25.16 22.5439 26.0002 21.8938 26.0002 20.594C26.0002 19.5794 25.4929 18.6759 24.7637 18.1052C24.7478 18.0892 24.7321 18.0892 24.7161 18.0735C24.6527 18.0259 24.5893 18.0892 24.6369 18.1527C25.16 18.8027 25.4296 19.4526 25.4296 20.4196C25.4296 21.6086 24.4783 22.5756 24.4783 23.717C24.4783 25.0803 25.7624 25.4607 25.7624 26.5703C25.7624 27.68 24.3833 28.5836 24.3833 29.7568C24.3833 30.8506 25.6832 32.0712 25.4612 33.3394C25.2076 33.4027 24.9381 33.4662 24.6686 33.5138C24.9064 31.9444 23.6382 30.803 23.6382 29.7725C23.6382 28.647 25.0649 27.6641 25.0649 26.5703C25.0649 25.54 24.0346 25.2071 23.9076 24.1609C23.8918 24.0182 23.7808 23.9071 23.6223 23.9389C23.4163 23.9706 23.1468 24.1133 22.7345 24.1133C22.3225 24.1133 22.0529 23.9706 21.8469 23.9389C21.6883 23.9071 21.5774 24.0182 21.5456 24.1609C21.4188 25.2071 20.3884 25.5559 20.3884 26.5703C20.3884 27.6641 21.8151 28.663 21.8151 29.7725C21.8151 30.803 20.5311 31.9444 20.7848 33.5138C20.5152 33.4662 20.2457 33.4027 19.9921 33.3394C19.7702 32.0712 21.07 30.8506 21.07 29.7568C21.07 28.5678 19.6909 27.68 19.6909 26.5703C19.6909 25.4607 20.9749 25.0644 20.9749 23.717C20.9749 22.5597 20.0238 21.5927 20.0238 20.4196C20.0238 19.4526 20.2933 18.8027 20.8164 18.1527C20.864 18.0892 20.8164 18.0259 20.7372 18.0735C20.7213 18.0892 20.7055 18.0892 20.6896 18.1052C19.9604 18.6759 19.4531 19.5794 19.4531 20.594C19.4531 21.8938 20.2933 22.5439 20.2933 23.717C20.2933 24.89 18.9299 25.4291 18.9299 26.5703C18.9299 27.7117 20.2616 28.6311 20.2616 29.6933C20.2616 30.6603 18.9775 31.8969 19.1361 33.0857C18.8824 32.9907 18.6288 32.8955 18.3752 32.7845C18.3911 31.6114 19.5323 30.6127 19.5323 29.6141C19.5323 28.5202 18.2484 27.6325 18.2484 26.5545C18.2484 25.4924 19.6274 24.8584 19.6274 23.717C19.6274 22.5756 18.9459 21.9257 18.9459 20.7684C18.9459 19.738 19.3105 19.0563 19.9445 18.2954C19.8018 18.3747 19.6909 18.4539 19.5641 18.549C18.8983 19.1357 18.4703 20.0551 18.4703 20.9586C18.4703 22.1952 19.0727 22.75 19.0727 23.717C19.0727 24.684 17.6618 25.4448 17.6618 26.5386C17.6618 27.6484 18.8824 28.5836 18.8824 29.503C18.8824 30.3432 17.8361 31.453 17.8045 32.4675C17.5825 32.3565 17.3765 32.2456 17.1704 32.1188C17.2497 31.1994 18.2484 30.4543 18.2484 29.5189C18.2484 29.1702 18.0897 28.9007 17.9472 28.663C18.3593 29.9469 16.8374 30.7079 16.7106 31.8175C16.4411 31.6273 16.1716 31.437 15.918 31.231C16.0449 31.025 16.2192 30.7712 16.4254 30.6287C16.3302 30.5176 16.2351 30.3908 16.1399 30.2799C15.9022 30.4225 15.6802 30.7079 15.5376 30.9139C15.3156 30.7236 15.0937 30.5176 14.8876 30.2957C15.0779 30.058 15.3315 29.6933 15.6802 29.5982C15.601 29.4554 15.5217 29.3129 15.4424 29.1702C15.0303 29.2811 14.7291 29.6774 14.523 29.9152C14.3328 29.6933 14.1426 29.4714 13.9682 29.2337C14.2852 29.0275 14.5547 28.5043 15.1254 28.4886C15.173 28.6154 15.2205 28.7263 15.2839 28.8373C15.3473 28.9799 15.4424 29.0275 15.6168 29.0275C16.1559 29.0275 16.9802 28.6787 17.6142 28.0447C17.2021 27.2996 17.0753 26.9033 17.0753 26.5229C17.0753 25.524 18.4861 24.6997 18.4861 23.7327C18.4861 22.7659 17.9948 22.2109 17.9948 21.1647C17.9948 20.2295 18.4227 19.405 18.9775 18.7234C18.8348 18.8027 18.7239 18.9137 18.5971 19.0246C17.9948 19.6429 17.5984 20.5307 17.5984 21.355C17.5984 22.4645 18.0105 22.9243 18.0105 23.7486C18.0105 24.5096 16.4095 25.5559 16.5838 26.6021C16.029 27.1093 15.3473 27.3472 14.7608 27.3472C14.8083 27.5691 14.8718 27.7752 14.9352 27.9812C14.2694 28.0129 13.9682 28.5836 13.6194 28.7579C13.445 28.5043 13.2865 28.2348 13.1438 27.9655C13.7304 27.902 13.9048 27.141 14.7291 27.2045C14.6815 26.9984 14.6498 26.8082 14.6181 26.6021C13.667 26.5386 13.4609 27.3313 12.8427 27.3629C12.7158 27.0777 12.589 26.7922 12.478 26.507C13.3341 26.5386 13.6353 25.7143 14.5389 25.7143C14.5389 25.6351 14.5389 25.54 14.5389 25.4607C14.5389 25.3021 14.5389 25.1595 14.5547 25.0009C13.4926 24.9693 13.1756 25.8887 12.2561 25.7936C12.1768 25.5083 12.0976 25.2071 12.0342 24.9059C13.1914 25.0485 13.6194 24.0657 14.6657 24.0815C14.7132 23.7962 14.7767 23.5267 14.8559 23.2572C13.5877 23.2096 13.1438 24.3034 11.9074 24.0974C11.8757 23.8438 11.8598 23.5902 11.8439 23.3207C13.2865 23.4791 13.8255 22.3061 15.1254 22.4488C15.2522 22.1317 15.3949 21.8305 15.5534 21.5451C13.8889 21.2439 13.3341 22.6232 11.7964 22.4012C11.9708 16.5199 16.7899 11.7959 22.7188 11.7959C28.6475 11.7959 33.4667 16.5199 33.6411 22.4012C32.1193 22.6072 31.5643 21.2439 29.9157 21.5293C30.0742 21.8146 30.2169 22.1317 30.3437 22.4329C31.6436 22.2902 32.1826 23.4791 33.6252 23.3207ZM18.0264 18.7393C17.2179 18.4063 16.251 18.4856 15.4108 19.0246C15.2839 18.2479 14.8559 17.5661 14.2694 17.154C14.1901 17.0906 14.095 17.154 14.1108 17.2492C14.2377 18.8819 13.2865 20.3087 12.0976 21.5451C13.3024 21.9097 14.3486 20.3404 15.918 20.8952C16.4728 20.0392 17.2021 19.31 18.0264 18.7393ZM22.7188 17.7405C21.7042 17.7405 20.8481 18.3112 20.6261 19.0563C20.6104 19.1197 20.6261 19.1514 20.6896 19.1197C20.8799 19.0405 21.0859 18.9929 21.3079 18.9929C21.7199 18.9929 22.0846 19.1514 22.3066 19.405C22.4017 19.7221 22.4017 20.1819 22.3066 20.4355C22.1322 20.4039 22.0687 20.2611 21.9102 20.2611C21.7518 20.2611 21.6091 20.372 21.3395 20.372C21.0543 20.372 21.0224 20.2452 20.8323 20.2452C20.6104 20.2452 20.5787 20.4672 20.5787 20.7208C20.5787 21.8464 21.6091 23.3999 22.7188 23.3999C23.8284 23.3999 24.8589 21.8464 24.8589 20.7208C24.8589 20.4672 24.8113 20.2452 24.5734 20.2295C24.4625 20.3087 24.3515 20.3879 24.0979 20.3879C23.8126 20.3879 23.7332 20.2769 23.5748 20.2769C23.3687 20.2769 23.4004 20.705 23.1625 20.7208C23.0041 20.3404 23.0041 19.8489 23.1309 19.4209C23.3528 19.1514 23.7175 19.0087 24.1295 19.0087C24.3515 19.0087 24.5577 19.0563 24.7478 19.1357C24.8113 19.1673 24.8429 19.1197 24.827 19.0722C24.5893 18.3271 23.7332 17.7405 22.7188 17.7405ZM24.3357 19.3734C24.0979 19.3734 23.8126 19.4526 23.6223 19.6429C23.6064 19.6904 23.6064 19.7856 23.6382 19.8332C24.082 19.6745 24.4625 19.6745 24.6527 19.8807C24.7478 19.7856 24.7795 19.7062 24.7795 19.6112C24.7795 19.4685 24.6369 19.3734 24.3357 19.3734ZM20.7848 19.8807C20.9908 19.6745 21.4506 19.6745 21.9102 19.8489C21.9261 19.6112 21.5139 19.3734 21.1018 19.3734C20.8005 19.3734 20.6579 19.4685 20.6579 19.627C20.6579 19.7062 20.6896 19.7856 20.7848 19.8807ZM27.7757 16.0602C26.983 16.1235 26.2696 16.3931 25.7148 16.8529C25.9527 16.1711 26.2539 15.5846 26.6343 15.0139C25.6197 15.1249 24.7637 15.4895 24.1454 16.1235L23.654 14.8396L24.7321 13.8884L23.2895 13.7933L22.7188 12.4459L22.1481 13.7933L20.7055 13.8884L21.7834 14.8396L21.292 16.1235C20.6737 15.4895 19.8177 15.1091 18.8031 15.0139C19.1836 15.5846 19.4849 16.187 19.7385 16.8529C19.1836 16.3931 18.4861 16.1235 17.6777 16.0602C18.1532 16.6785 18.5812 17.3443 18.8983 18.0418C18.9299 18.1211 19.0092 18.1527 19.0886 18.1052C20.1824 17.5661 21.4188 17.2492 22.7345 17.2492C24.0503 17.2492 25.2709 17.5504 26.3807 18.1052C26.4599 18.1527 26.5391 18.1211 26.5708 18.0418C26.8721 17.3284 27.3001 16.6785 27.7757 16.0602ZM29.5194 20.8794C31.0888 20.3404 32.1193 21.8938 33.3399 21.5293C32.1667 20.2769 31.2156 18.8661 31.3424 17.2333C31.3424 17.1381 31.2632 17.0906 31.1839 17.1381C30.5816 17.5504 30.1693 18.232 30.0425 19.0087C29.2182 18.4698 28.2353 18.4063 27.4269 18.7234C28.2353 19.31 28.9646 20.0392 29.5194 20.8794Z" fill="#006F3F"/>
</g>
<defs>
<clipPath id="clip0_132_220">
<rect width="45" height="45" fill="white"/>
</clipPath>
</defs>
</svg>
