<svg width="30" height="30" viewBox="0 0 30 30" fill="none" xmlns="http://www.w3.org/2000/svg">
<path id="Vector" fill-rule="evenodd" clip-rule="evenodd" d="M15 30C18.9782 30 22.7936 28.4196 25.6066 25.6066C28.4196 22.7936 30 18.9782 30 15C30 11.0218 28.4196 7.20644 25.6066 4.3934C22.7936 1.58035 18.9782 0 15 0C11.0218 0 7.20644 1.58035 4.3934 4.3934C1.58035 7.20644 0 11.0218 0 15C0 18.9782 1.58035 22.7936 4.3934 25.6066C7.20644 28.4196 11.0218 30 15 30ZM12.9694 18.8681V18.6056C12.9806 15.6431 13.7794 14.7394 15.2062 13.8469C16.23 13.1794 17.0287 12.4406 17.0156 11.3475C17.0287 10.1569 16.0987 9.3825 14.9456 9.37125C13.8394 9.3825 12.8025 10.1212 12.7556 11.5144H9.375C9.435 8.16937 11.9212 6.5625 14.9681 6.5625C18.2887 6.5625 20.6344 8.2875 20.6344 11.2275C20.6344 13.1925 19.6219 14.43 18.0637 15.3713C16.7175 16.1681 16.1231 16.9406 16.1119 18.6075V18.87H12.9694V18.8681ZM14.6119 24.2494C13.4925 24.2494 12.5869 23.3569 12.6131 22.2488C12.6103 21.9866 12.6602 21.7266 12.76 21.4842C12.8597 21.2417 13.0073 21.0219 13.1938 20.8376C13.3803 20.6534 13.6019 20.5086 13.8456 20.4118C14.0892 20.3151 14.3498 20.2683 14.6119 20.2744C15.1348 20.2773 15.6354 20.4862 16.0054 20.8558C16.3753 21.2254 16.5847 21.7259 16.5881 22.2488C16.5867 22.7747 16.3788 23.2791 16.0092 23.6533C15.6396 24.0274 15.1378 24.2415 14.6119 24.2494Z" fill="#D9D9D9"/>
</svg>
