<svg width="47" height="39" viewBox="0 0 47 39" fill="none" xmlns="http://www.w3.org/2000/svg">
<g clip-path="url(#clip0_105_54)">
<path d="M22.43 31.98L14.99 22.84L25.79 9.54H19.9C17.25 9.54 15.44 10.35 13.84 12.23L8.15 19.23V7.31V0H2.43C1.09 0 0 1.09 0 2.44V7.31V31.98V38.31H5.71C7.06 38.31 8.14 37.22 8.14 35.87V31.98V26.33L12.77 32L16.7 36.84C17.5 37.84 18.54 38.3 19.61 38.3H27.58L22.43 31.98Z" fill="#1D1D1B"/>
<path d="M37.06 38.31C32.67 38.31 29.62 35.28 29.62 30.88V2.43C29.62 1.09 30.71 0 32.06 0H37.77V29.35C37.77 30.56 38.75 31.54 39.95 31.54H45.77V35.88C45.77 37.23 44.68 38.32 43.33 38.32H37.06V38.31Z" fill="#1D1D1B"/>
<path d="M8.91003 18.2399L8.92003 18.2299C8.93003 18.2299 8.91003 18.2399 8.91003 18.2399ZM46.95 7.42993L46.45 7.95993C46.42 7.96993 44.9 9.52993 40.5 9.52993H19.75C16.47 9.52993 14.93 10.8699 13.75 12.3099L13.1 13.1099C13.08 13.1299 13.06 13.1499 13.05 13.1599L8.93003 18.2299C10.43 17.0999 12.49 16.4299 14.58 16.4299H40.51C43.66 16.4299 46.68 15.4899 46.93 13.1399C46.96 12.9499 46.96 12.8399 46.96 12.8399V7.42993H46.95Z" fill="#E20613"/>
</g>
<defs>
<clipPath id="clip0_105_54">
<rect width="46.95" height="38.31" fill="white"/>
</clipPath>
</defs>
</svg>
