<svg width="251" height="78" viewBox="0 0 251 78" fill="none" xmlns="http://www.w3.org/2000/svg">
<path d="M8.43 75.24C6.75 75.24 5.37 75.06 4.29 74.7C3.21 74.34 2.37 73.86 1.77 73.26C1.17 72.72 0.75 72.06 0.51 71.28C0.33 70.56 0.24 69.84 0.24 69.12C0.24 68.22 0.33 67.38 0.51 66.6C0.75 65.88 1.17 65.22 1.77 64.62C2.37 64.08 3.21 63.63 4.29 63.27C5.37 62.97 6.75 62.82 8.43 62.82H16.08V41.76C12.54 40.26 9.9 37.98 8.16 34.92C6.42 31.86 5.55 28.53 5.55 24.93V19.53C5.55 17.13 6 14.76 6.9 12.42C7.8 10.08 9.09 8.01 10.77 6.21C12.51 4.35 14.55 2.84999 16.89 1.71C19.29 0.569996 21.99 -4.29153e-06 24.99 -4.29153e-06H54.33C57.27 -4.29153e-06 59.94 0.569996 62.34 1.71C64.74 2.84999 66.78 4.35 68.46 6.21C70.2 8.01 71.52 10.08 72.42 12.42C73.32 14.76 73.77 17.13 73.77 19.53V24.93C73.77 28.53 72.9 31.86 71.16 34.92C69.42 37.92 66.84 40.17 63.42 41.67V62.82H70.98C72.66 62.82 74.04 62.97 75.12 63.27C76.2 63.63 77.04 64.08 77.64 64.62C78.24 65.22 78.63 65.88 78.81 66.6C79.05 67.38 79.17 68.22 79.17 69.12C79.17 69.84 79.05 70.56 78.81 71.28C78.63 72.06 78.24 72.72 77.64 73.26C77.04 73.86 76.2 74.34 75.12 74.7C74.04 75.06 72.66 75.24 70.98 75.24H8.43ZM48.84 62.82V43.38H30.66V62.82H48.84ZM51.63 30.87C54.21 30.75 56.1 29.91 57.3 28.35C58.56 26.79 59.19 24.9 59.19 22.68V20.7C59.19 18.42 58.56 16.5 57.3 14.94C56.1 13.32 54.12 12.51 51.36 12.51H27.96C25.2 12.51 23.19 13.32 21.93 14.94C20.73 16.5 20.13 18.42 20.13 20.7V22.68C20.13 24.9 20.73 26.79 21.93 28.35C23.19 29.91 25.11 30.75 27.69 30.87H51.63ZM93.9476 75.24C92.2676 75.24 90.8876 75.06 89.8076 74.7C88.7276 74.34 87.8876 73.86 87.2876 73.26C86.6876 72.72 86.2676 72.06 86.0276 71.28C85.8476 70.56 85.7576 69.84 85.7576 69.12C85.7576 68.22 85.8476 67.38 86.0276 66.6C86.2676 65.88 86.6876 65.22 87.2876 64.62C87.8876 64.08 88.7276 63.63 89.8076 63.27C90.8876 62.97 92.2676 62.82 93.9476 62.82H109.158V42.12C109.158 39.12 109.878 37.08 111.318 36C112.818 34.86 114.528 34.29 116.448 34.29C117.408 34.29 118.308 34.41 119.148 34.65C120.048 34.89 120.828 35.31 121.488 35.91C122.148 36.51 122.688 37.32 123.108 38.34C123.528 39.36 123.738 40.62 123.738 42.12V62.82H156.498C158.178 62.82 159.558 62.97 160.638 63.27C161.718 63.63 162.558 64.08 163.158 64.62C163.758 65.22 164.148 65.88 164.328 66.6C164.568 67.38 164.688 68.22 164.688 69.12C164.688 69.84 164.568 70.56 164.328 71.28C164.148 72.06 163.758 72.72 163.158 73.26C162.558 73.86 161.718 74.34 160.638 74.7C159.558 75.06 158.178 75.24 156.498 75.24H93.9476ZM143.718 47.16C142.278 46.5 141.198 45.57 140.478 44.37C139.818 43.11 139.788 41.58 140.388 39.78C140.988 37.74 141.468 35.85 141.828 34.11C142.188 32.37 142.428 30.69 142.548 29.07C142.668 27.45 142.728 25.8 142.728 24.12C142.788 22.44 142.818 20.61 142.818 18.63V13.5H99.9776C98.2976 13.5 96.9176 13.35 95.8376 13.05C94.7576 12.69 93.9176 12.24 93.3176 11.7C92.7176 11.1 92.2976 10.44 92.0576 9.72C91.8776 8.94 91.7876 8.1 91.7876 7.2C91.7876 6.48 91.8776 5.76 92.0576 5.04C92.2976 4.26 92.7176 3.6 93.3176 3.06C93.9176 2.46 94.7576 1.98 95.8376 1.62C96.9176 1.26 98.2976 1.08 99.9776 1.08H150.828C152.448 1.08 153.708 1.26 154.608 1.62C155.508 1.92 156.198 2.37 156.678 2.97C157.158 3.51 157.458 4.2 157.578 5.04C157.698 5.88 157.758 6.84 157.758 7.92V17.82C157.758 20.7 157.698 23.49 157.578 26.19C157.518 28.83 157.308 31.32 156.948 33.66C156.648 35.94 156.168 38.07 155.508 40.05C154.908 42.03 154.038 43.77 152.898 45.27C152.298 46.11 151.608 46.74 150.828 47.16C150.048 47.52 149.238 47.76 148.398 47.88C147.558 48 146.718 48 145.878 47.88C145.098 47.7 144.378 47.46 143.718 47.16ZM178.025 48.33C176.525 48.33 175.325 48.21 174.425 47.97C173.525 47.67 172.835 47.28 172.355 46.8C171.875 46.32 171.545 45.75 171.365 45.09C171.245 44.43 171.185 43.68 171.185 42.84C171.185 42.18 171.245 41.55 171.365 40.95C171.545 40.29 171.875 39.72 172.355 39.24C172.835 38.7 173.525 38.28 174.425 37.98C175.325 37.62 176.525 37.44 178.025 37.44H203.315V32.22H184.775C183.095 32.22 181.775 32.07 180.815 31.77C179.855 31.41 179.105 30.96 178.565 30.42C178.085 29.82 177.785 29.16 177.665 28.44C177.545 27.66 177.485 26.82 177.485 25.92V7.55999C177.485 4.56 178.175 2.55 179.555 1.53C180.995 0.509996 182.675 -4.29153e-06 184.595 -4.29153e-06C185.555 -4.29153e-06 186.485 0.119996 187.385 0.359996C188.285 0.539998 189.095 0.929998 189.815 1.53C190.535 2.07 191.105 2.85 191.525 3.87C191.945 4.83 192.155 6.06 192.155 7.55999V7.65H229.235V7.55999C229.235 6.06 229.445 4.83 229.865 3.87C230.285 2.85 230.855 2.07 231.575 1.53C232.295 0.929998 233.105 0.539998 234.005 0.359996C234.905 0.119996 235.835 -4.29153e-06 236.795 -4.29153e-06C237.755 -4.29153e-06 238.655 0.119996 239.495 0.359996C240.335 0.539998 241.085 0.929998 241.745 1.53C242.405 2.07 242.915 2.85 243.275 3.87C243.695 4.83 243.905 6.06 243.905 7.55999V25.92C243.905 26.82 243.845 27.66 243.725 28.44C243.605 29.16 243.275 29.82 242.735 30.42C242.255 30.96 241.535 31.41 240.575 31.77C239.615 32.07 238.295 32.22 236.615 32.22H217.895V37.44H243.455C244.955 37.44 246.155 37.62 247.055 37.98C247.955 38.28 248.645 38.7 249.125 39.24C249.605 39.72 249.905 40.29 250.025 40.95C250.205 41.55 250.295 42.18 250.295 42.84C250.295 43.68 250.205 44.43 250.025 45.09C249.905 45.75 249.605 46.32 249.125 46.8C248.645 47.28 247.955 47.67 247.055 47.97C246.155 48.21 244.955 48.33 243.455 48.33H178.025ZM183.515 77.67C182.615 77.73 181.715 77.73 180.815 77.67C179.915 77.61 179.105 77.4 178.385 77.04C177.665 76.68 177.035 76.14 176.495 75.42C176.015 74.76 175.685 73.83 175.505 72.63C175.205 70.35 175.625 68.64 176.765 67.5C177.905 66.42 179.645 65.73 181.985 65.43C184.565 65.13 187.115 64.77 189.635 64.35C192.215 63.93 194.495 63.33 196.475 62.55C198.515 61.77 200.165 60.78 201.425 59.58C202.685 58.38 203.315 56.85 203.315 54.99V54.45C203.315 52.77 204.035 51.51 205.475 50.67C206.915 49.77 208.685 49.32 210.785 49.32C212.885 49.32 214.655 49.77 216.095 50.67C217.535 51.51 218.255 52.77 218.255 54.45V55.53C218.255 57.15 218.885 58.53 220.145 59.67C221.465 60.81 223.115 61.77 225.095 62.55C227.135 63.27 229.415 63.84 231.935 64.26C234.455 64.74 236.975 65.13 239.495 65.43C241.835 65.73 243.575 66.42 244.715 67.5C245.855 68.64 246.275 70.35 245.975 72.63C245.795 73.83 245.435 74.76 244.895 75.42C244.415 76.14 243.815 76.68 243.095 77.04C242.375 77.4 241.565 77.61 240.665 77.67C239.765 77.73 238.865 77.73 237.965 77.67C235.445 77.49 232.925 77.16 230.405 76.68C227.945 76.2 225.515 75.57 223.115 74.79C220.775 74.01 218.525 73.05 216.365 71.91C214.265 70.83 212.375 69.57 210.695 68.13C207.275 71.07 203.135 73.29 198.275 74.79C193.475 76.29 188.555 77.25 183.515 77.67ZM229.235 22.05V17.82H192.155V22.05H229.235Z" fill="url(#paint0_linear_2434_11)"/>
<defs>
<linearGradient id="paint0_linear_2434_11" x1="27.194" y1="97" x2="232.936" y2="96.8059" gradientUnits="userSpaceOnUse">
<stop stop-color="#01CBB3"/>
<stop offset="0.485" stop-color="#1A97D6"/>
<stop offset="1" stop-color="#365DFD"/>
</linearGradient>
</defs>
</svg>
